<svg xmlns="http://www.w3.org/2000/svg" xmlns:xlink="http://www.w3.org/1999/xlink" viewBox="0 0 187.71 188.66" width="80px" height="80px"><defs><style>.cls-1{fill:none;}.cls-2{clip-path:url(#clip-path);}.cls-3{fill:#e7213a;}.cls-4{fill:#ed1a3b;}.cls-5{fill:#fff;}.cls-6,.cls-7{fill:#006eb7;}.cls-7{fill-rule:evenodd;}</style><clipPath id="clip-path" transform="translate(0 0)"><rect class="cls-1" width="187.71" height="188.66"/></clipPath></defs><title>Vector Smart Object</title><g class="cls-2"><path class="cls-3" d="M104.51,41.62c-1.16.31-2.32,0.64-3.47,1-3,.93-5.91,1.89-8.86,2.87-8.83,4.2-14.73,9-18.59,13.37-1.94,1.5-4.09,3.22-6.47,5.17A50.82,50.82,0,0,0,53.71,81.57,50.05,50.05,0,0,1,66.16,65.94c2.38-2,4.53-3.67,6.47-5.17,3.86-4.37,9.76-9.16,18.59-13.37,2.95-1,5.9-1.94,8.86-2.87,2-.63,4-1.18,6-1.63,0.65-.14,1.3-0.28,1.95-0.4-1.16-.33-2.34-0.63-3.53-0.89" transform="translate(0 0)"/><path class="cls-4" d="M93.72,6.37A87.36,87.36,0,0,0,50.15,169.44c0-.46,0-0.92,0-1.39,0-10.48,2.78-20,7.31-27.05-0.22-1.42-.49-3.08-0.89-4.84a56.24,56.24,0,0,1,58.28-94.48,40.2,40.2,0,0,1,7.8.34c2.48,0.36,4.91,1,7.35,1.61,0.9,0.2,1.37,1.88,1.78,1,0.18-.37.63,1.3,1,1.43,3.6,1.21,7.1,2.87,10.68,4.11,2.27,0.79,2.07,1.64.94,3.76a6.54,6.54,0,0,0-.54,3.9c0.11,0.87-1,.83-1.28,1.4a7,7,0,0,1-2.64,2.92,54.84,54.84,0,0,1,9.81,31.54,56.34,56.34,0,0,1-32.13,50.82c-0.12-.53-0.23-1.06-0.36-1.59a11.66,11.66,0,0,0-.43-1.36l0.92-.47a33.62,33.62,0,0,0-6.67-8.58,9,9,0,0,1-1.7.79l-0.45.11c8.3,6.66,13.93,19.64,13.93,34.57,0,0.77,0,1.53,0,2.29,0,0.4,0,.79-0.07,1.18s0,0.65-.06,1c0,0.52-.09,1-0.14,1.56,0,0.15,0,.3-0.05.45-0.07.6-.14,1.2-0.23,1.79h0A87.36,87.36,0,0,0,93.72,6.37" transform="translate(0 0)"/><path class="cls-3" d="M94.07,176.14l-0.39.45a11.71,11.71,0,0,0-7.21-3,11.72,11.72,0,0,0-7.21,3l-0.39-.45a16.45,16.45,0,0,0-2.95,3.11,87.65,87.65,0,0,0,17.79,1.82q2.24,0,4.45-.11a17.49,17.49,0,0,0-4.1-4.81" transform="translate(0 0)"/><path class="cls-5" d="M44.27,133.72l-4.6-6.45L41,124.85l-2.92-4.09-0.61.43L26.82,140l1.28,1.8,21.21-4,0.61-.43L47,133.21Zm-10.16,2.41,3-5,2.67,3.74Z" transform="translate(0 0)"/><path class="cls-5" d="M35.8,112.92L28.43,115a11.4,11.4,0,0,0-.66-1.87l6.25-6.4-1.58-5.49-0.77.22-7,7.69c-3.56-3.12-7.17-2-11.11-.83L15,113.44c3.61-1,7.23-2.36,8.66,2.58l0.1,0.36-7.31,2.11,1.45,5,19.3-5.57-1.45-5" transform="translate(0 0)"/><path class="cls-5" d="M32.72,92.83l-7.65-.41a11.75,11.75,0,0,0,0-2l8-4,0.31-5.7-0.8,0-9.12,5c-2.34-4.12-6.12-4.21-10.22-4.43-0.1,1.78-.19,3.53-0.28,5.27,3.75,0.2,7.61.15,7.33,5.28l0,0.37-7.59-.41c-0.09,1.78-.19,3.5-0.28,5.21L32.44,98c0.09-1.72.18-3.44,0.28-5.21" transform="translate(0 0)"/><polygon class="cls-5" points="29.61 70.99 34.45 76.34 34.96 76.54 37.02 71.4 22.64 55.36 21.92 55.07 19.84 60.24 25.44 66.19 25.38 66.33 17.1 67.08 14.96 72.42 15.68 72.7 29.61 70.99"/><path class="cls-5" d="M39.15,33.35l1,11.8-11.75-.08-1.28,1.4L42,60.07l3.54-3.88-6.61-6L45.15,50l0.39-.42-0.42-6.18,6.61,6,3.55-3.88L40.39,32Z" transform="translate(0 0)"/><polygon class="cls-5" points="65.18 17.53 60.21 20.05 60.49 28.21 60.37 28.27 53.64 23.38 48.52 25.98 48.87 26.67 60.47 34.56 60.58 41.77 60.83 42.26 65.77 39.75 65.53 18.22 65.18 17.53"/><polygon class="cls-5" points="80.45 13.79 78.27 14.17 72.76 35.04 72.88 35.77 77.83 34.9 80.83 22.43 87.95 33.13 92.9 32.26 92.77 31.52 80.45 13.79"/><path class="cls-5" d="M100.4,26.31L95.5,32l-0.12.74,5.67,0.92,4.34-5.29L108,28.77l-0.95,5.84,5.07,0.82,3.21-19.83-8.7-1.41c-7.8-1.24-10.73,7.91-6.27,12.13m8.37-2.11-3.63-.59c-2.75-.45-2.1-5.34.79-4.9,1.2,0.17,2.44.4,3.63,0.59l-0.79,4.9" transform="translate(0 0)"/><path class="cls-5" d="M135.73,29.95l2.15-4.06-13.18-7-2.15,4.06,4.36,2.32L119.63,39l4.49,2.38,7.28-13.69Z" transform="translate(0 0)"/><path class="cls-5" d="M150.95,51.32c9.86-9.79-4.66-24.42-14.52-14.63s4.64,24.44,14.52,14.63m-10.8-10.88a5.05,5.05,0,1,1,7.1,7.15c-5.18,5.14-12.27-2-7.1-7.15" transform="translate(0 0)"/><path class="cls-5" d="M147.8,66.63l4.68-2.12L154,67.89c4,8.76,17.56,2.6,13.62-6.17L164,53.67,145.68,62c0.7,1.54,1.4,3.11,2.12,4.68m14.12-6.39c0.49,1.07,1,2.24,1.52,3.35,1.2,2.73-4.07,4.93-5.23,2.37l-1.51-3.35,5.23-2.37" transform="translate(0 0)"/><path class="cls-5" d="M154.07,89c0.21,9.61,14.27,9.34,14.09-.27L168.08,85l6-.12L174,79.79l-20.09.38Zm9.4-3.88,0.07,3.67c0.06,2.81-4.79,3.07-4.88.09-0.05-1.2,0-2.5-.07-3.67Z" transform="translate(0 0)"/><rect class="cls-5" x="154.32" y="99.81" width="20.09" height="5.14" transform="translate(-1.93 3.16) rotate(-1.1)"/><path class="cls-5" d="M146.8,122.81l4.42,2.63-1.9,3.18c-4.92,8.26,7.91,15.9,12.85,7.65l4.52-7.6L149.43,118.4l-2.63,4.42m6.51,8.15,1.88-3.15,4.93,2.94c-0.6,1-1.24,2.13-1.88,3.16-1.55,2.55-6.37-.52-4.93-2.94" transform="translate(0 0)"/><path class="cls-5" d="M148.1,140.28c-4-4.78-8.61-3.59-12.7-.37l-1.09-1.29-3.73,3.14,1.09,1.3c-3.86,3.48-5.82,7.79-1.78,12.58s8.55,3.56,12.64.35l1.09,1.29,3.77-3.18-1.09-1.29c3.86-3.48,5.82-7.75,1.8-12.51m-14.2,12c-1.85-2.2-.66-4.17.87-5.6l4.78,5.68c-1.74,1.36-3.8,2.12-5.65-.07m9.3-3-4.79-5.68c1.67-1.26,3.82-2.1,5.67.1s0.75,4.09-.88,5.58" transform="translate(0 0)"/><path class="cls-5" d="M117.47,72.25l0.08,0.08a0.09,0.09,0,0,1-.08-0.08" transform="translate(0 0)"/><path class="cls-6" d="M93.85,0a93.84,93.84,0,0,0-43,177.27c-0.21-1.27-.37-2.57-0.49-3.88a90.65,90.65,0,1,1,76.9,4.75h0q-2.83,1.12-5.75,2.07c-0.27,1.23-.59,2.43-0.94,3.6A93.85,93.85,0,0,0,93.85,0" transform="translate(0 0)"/><path class="cls-6" d="M99.81,184.33c-2,.13-4,0.21-6,0.21q-2.73,0-5.43-.17l-0.33,0-2.29-.17-0.46,0-2.31-.24-0.31,0q-1.3-.16-2.58-0.36l-0.37-.06q-1.05-.17-2.1-0.36l-0.78-.15-1-.19h0c-0.62-.13-1.23-0.27-1.85-0.41a24,24,0,0,0-1.26,3,93.84,93.84,0,0,0,21.07,2.39q3.5,0,6.94-.26a25.93,25.93,0,0,0-1-3.11" transform="translate(0 0)"/><path class="cls-3" d="M95.22,118.83l0.15-.09-0.25.06,0.1,0" transform="translate(0 0)"/><path class="cls-6" d="M58.1,73.95c0.35-.51.71-1,1.09-1.53l-10.89-7c-0.6,1-1.18,1.92-1.72,2.91Z" transform="translate(0 0)"/><path class="cls-6" d="M75.49,56.85c0.47-.47,1-0.94,1.48-1.41L72.74,44.63c-1,.44-2,0.91-3,1.41Z" transform="translate(0 0)"/><path class="cls-6" d="M73.26,59.11l0.33-.26c0.32-.36.65-0.72,1-1.08l-5.53-11.4c-1,.51-2,1-2.92,1.62Z" transform="translate(0 0)"/><path class="cls-6" d="M61.9,69.07c0.4-.45.81-0.88,1.23-1.32l-10-8.86c-0.73.85-1.44,1.71-2.13,2.61Z" transform="translate(0 0)"/><path class="cls-6" d="M77.9,54.61c0.54-.46,1.1-0.93,1.69-1.39l-3-10q-1.59.53-3.13,1.16Z" transform="translate(0 0)"/><path class="cls-6" d="M59.94,71.44c0.37-.48.76-1,1.16-1.42L50.6,62.07c-0.67.9-1.3,1.83-1.91,2.77Z" transform="translate(0 0)"/><path class="cls-6" d="M66.23,64.8c0.3-.26.58-0.52,0.89-0.78l0.44-.36L58.95,53.16q-1.28,1.09-2.48,2.25Z" transform="translate(0 0)"/><path class="cls-6" d="M68.54,62.86l1.36-1.1L62.14,50.64c-0.9.66-1.79,1.33-2.65,2Z" transform="translate(0 0)"/><path class="cls-6" d="M70.88,61l1.38-1.1L65.52,48.37c-0.95.59-1.87,1.21-2.78,1.85Z" transform="translate(0 0)"/><path class="cls-6" d="M93.36,45.1l2.91-1,0.35-3.59c-1.06-.06-2.12-0.1-3.19-0.1H93.26Z" transform="translate(0 0)"/><path class="cls-6" d="M101.18,42.58q1.66-.52,3.33-1c-1-.22-2.07-0.4-3.12-0.56Z" transform="translate(0 0)"/><path class="cls-6" d="M97.15,43.86l3.2-1L100.68,41q-1.65-.23-3.34-0.35Z" transform="translate(0 0)"/><path class="cls-6" d="M49.54,92.89l-9.38-.18c0,0.35,0,.69,0,1,0,0.81,0,1.61.06,2.42l8.73-.86q0.28-1.18.62-2.42" transform="translate(0 0)"/><path class="cls-6" d="M88.47,40.69c-1.12.1-2.23,0.24-3.32,0.41l1.33,7.42q1.15-.68,2.38-1.34Z" transform="translate(0 0)"/><path class="cls-6" d="M80.53,52.48q0.91-.69,1.9-1.38l-2-9q-1.63.41-3.21,0.92Z" transform="translate(0 0)"/><path class="cls-6" d="M64,66.86c0.42-.41.84-0.83,1.28-1.23l-9.34-9.72c-0.8.79-1.56,1.6-2.31,2.44Z" transform="translate(0 0)"/><path class="cls-6" d="M83.39,50.44c0.68-.45,1.4-0.91,2.13-1.36l-1.09-7.86q-1.66.28-3.28,0.67Z" transform="translate(0 0)"/><path class="cls-6" d="M50.88,88.5q0.36-1,.76-2.1L41,84.49c-0.2,1.12-.37,2.25-0.49,3.39Z" transform="translate(0 0)"/><path class="cls-6" d="M48,119.49a7,7,0,0,1-.4-3.39l0-.19-2,1C46,118,46.53,119,47.11,120Z" transform="translate(0 0)"/><path class="cls-6" d="M56.38,76.58c0.33-.55.67-1.09,1-1.63L46.25,69q-0.79,1.5-1.48,3Z" transform="translate(0 0)"/><path class="cls-6" d="M49.84,123.23c-0.09-.15-0.18-0.3-0.26-0.46a7.42,7.42,0,0,1-.51-1.44c-0.26-.37-0.53-0.76-0.81-1.2l-0.81.47c0.6,1,1.24,2,1.9,3Z" transform="translate(0 0)"/><path class="cls-6" d="M46.88,111c0-.45,0-1.58.13-3.26l-4.6,1.39c0.34,1.12.71,2.24,1.12,3.33Z" transform="translate(0 0)"/><path class="cls-6" d="M47.31,115.16a16.49,16.49,0,0,1-.44-3.31l-3.1,1.21c0.43,1.1.9,2.17,1.4,3.23Z" transform="translate(0 0)"/><path class="cls-6" d="M56.89,133.35l0.33,0.31,0.11-.13c0-.14-0.06-0.28-0.1-0.43a9,9,0,0,1-.24-2.95,9.94,9.94,0,0,1-1-.41l-0.95.91q0.95,1,1.94,1.92a5.35,5.35,0,0,0-.12.78" transform="translate(0 0)"/><path class="cls-6" d="M89.2,40.63l0.59,6c0.78-.4,1.57-0.8,2.4-1.2l0.26-.09,0.1-4.93q-1.69,0-3.34.16" transform="translate(0 0)"/><path class="cls-6" d="M55.39,129.38a12,12,0,0,1-2.73-2.21l-0.39.32q1.14,1.38,2.36,2.68Z" transform="translate(0 0)"/><path class="cls-6" d="M52.22,126.66a16.84,16.84,0,0,1-1.7-2.41c-0.11-.14-0.22-0.29-0.32-0.44l-0.48.33c0.68,1,1.39,1.92,2.14,2.85Z" transform="translate(0 0)"/><path class="cls-6" d="M47.09,106.79c0.07-.9.17-1.91,0.31-3l-6,1.33c0.25,1.14.55,2.27,0.87,3.39Z" transform="translate(0 0)"/><path class="cls-6" d="M54.82,79.37q0.46-.87,1-1.74l-11.3-4.94q-0.67,1.56-1.25,3.16Z" transform="translate(0 0)"/><path class="cls-6" d="M52.07,85.32q0.39-1,.83-2L41.81,80.46c-0.28,1.1-.52,2.22-0.73,3.34Z" transform="translate(0 0)"/><path class="cls-6" d="M53.37,82.27q0.43-.93.89-1.85L43,76.52q-0.55,1.61-1,3.26Z" transform="translate(0 0)"/><path class="cls-6" d="M47.53,102.77c0.12-.88.27-1.82,0.44-2.81l-7.33,1c0.16,1.16.35,2.31,0.58,3.44Z" transform="translate(0 0)"/><path class="cls-6" d="M48.15,98.95c0.16-.84.33-1.71,0.53-2.59l-8.46.5c0.07,1.16.18,2.31,0.32,3.45Z" transform="translate(0 0)"/><path class="cls-6" d="M49.84,91.82c0.21-.74.45-1.49,0.69-2.25l-10.14-1c-0.11,1.13-.17,2.28-0.21,3.44Z" transform="translate(0 0)"/><path class="cls-6" d="M122.81,77.94l0.51,1,18.61-7.29q-0.73-1.6-1.56-3.14Z" transform="translate(0 0)"/><path class="cls-6" d="M121.63,75.61l0.53,1L140,68q-0.85-1.53-1.79-3Z" transform="translate(0 0)"/><path class="cls-6" d="M115.53,130.26a11.12,11.12,0,0,1-2.26.85h0L118,141q1.64-.85,3.21-1.82Z" transform="translate(0 0)"/><path class="cls-6" d="M124,80.29l0.49,1.07,19.08-5.79c-0.4-1.1-.84-2.19-1.31-3.26Z" transform="translate(0 0)"/><path class="cls-6" d="M118.33,69.7l0.3-.25-0.41.07,0.11,0.18" transform="translate(0 0)"/><path class="cls-6" d="M125,82.68l0.48,1.11,19.28-4.23q-0.47-1.71-1.06-3.37Z" transform="translate(0 0)"/><path class="cls-6" d="M119.68,72l8.54-6-1.38.28a9.76,9.76,0,0,1-3.2.62l-0.11,0-4.47,4L119.68,72" transform="translate(0 0)"/><path class="cls-6" d="M146.46,88.47l-18.41,1.81c0.16,0.46.31,0.93,0.46,1.39L146.7,92c0-1.2-.12-2.38-0.23-3.56" transform="translate(0 0)"/><path class="cls-6" d="M112.27,131.53c-0.23,0-.25,0-0.05.15,0.82,0.51-1.57,1-2,1.11l0,0.1A30.74,30.74,0,0,1,116,138.6Z" transform="translate(0 0)"/><path class="cls-6" d="M127.09,87.66c0.16,0.42.32,0.85,0.47,1.28l18.83-1.11c-0.13-1.18-.31-2.36-0.51-3.52Z" transform="translate(0 0)"/><path class="cls-6" d="M118.69,128.72c-0.44.23-.86,0.45-1.27,0.64l-1,.46,5.29,9q1.56-1,3-2.07Z" transform="translate(0 0)"/><path class="cls-6" d="M126.09,85.13l0.48,1.18,19.2-2.65c-0.22-1.17-.49-2.32-0.79-3.46Z" transform="translate(0 0)"/><path class="cls-6" d="M133.25,109.64c0.13,1,.24,2,0.34,2.9l7.9,4.22q0.79-1.63,1.46-3.33Z" transform="translate(0 0)"/><path class="cls-6" d="M129.76,95.92c0.07,0.26.14,0.52,0.21,0.78a8.49,8.49,0,0,1,.53,1l15.79,2.82q0.22-1.77.33-3.58Z" transform="translate(0 0)"/><path class="cls-6" d="M131.06,99c0.22,0.62.43,1.3,0.62,2l13.91,3.63q0.37-1.76.62-3.56Z" transform="translate(0 0)"/><path class="cls-6" d="M132,102.35c0.17,0.73.33,1.49,0.47,2.27l12.08,4.19q0.51-1.73.9-3.51Z" transform="translate(0 0)"/><path class="cls-6" d="M146.71,92.68L128.94,93c0.16,0.51.31,1,.46,1.53l17.26,1.7c0-.83.07-1.67,0.07-2.52,0-.36,0-0.71,0-1.07" transform="translate(0 0)"/><path class="cls-6" d="M130.62,65.54l-10.24,7.75,0.56,1,16.94-9.93-0.33-.51a9.91,9.91,0,0,1-2.46.43c-1.49.48-3,.87-4.48,1.22" transform="translate(0 0)"/><path class="cls-6" d="M124.84,125c-0.73.49-1.47,1-2.21,1.43l6,7.29c0.92-.81,1.81-1.65,2.67-2.52Z" transform="translate(0 0)"/><path class="cls-6" d="M132.7,105.88c0.14,0.85.27,1.71,0.39,2.56l10.08,4.41q0.65-1.69,1.19-3.43Z" transform="translate(0 0)"/><path class="cls-6" d="M134.19,128l-6.27-5.14c-0.72.51-1.48,1-2.26,1.56l6.06,6.31q1.28-1.32,2.46-2.72" transform="translate(0 0)"/><path class="cls-6" d="M131.06,120.64c-0.7.51-1.5,1.09-2.35,1.69l5.88,5.22q1.16-1.41,2.23-2.9Z" transform="translate(0 0)"/><path class="cls-6" d="M134.06,118.08l0,0.31s-0.87.67-2.26,1.7l5.35,4.05q1-1.5,2-3.06Z" transform="translate(0 0)"/><path class="cls-6" d="M133.71,113.68c0.13,1.36.22,2.51,0.28,3.34l5.49,3.52q0.92-1.57,1.74-3.21Z" transform="translate(0 0)"/><path class="cls-6" d="M121.79,126.94c-0.75.46-1.49,0.89-2.2,1.29l5.71,8.19q1.47-1.1,2.87-2.3Z" transform="translate(0 0)"/><path class="cls-4" d="M115.28,85h-4.56l-0.43-3.39a0.6,0.6,0,0,0-.59-0.62h-2.9a0.6,0.6,0,0,0-.59.62L105.8,85H80.37l-0.43-3.39A0.6,0.6,0,0,0,79.36,81h-2.9a0.6,0.6,0,0,0-.58.62L75.45,85h-4.5a0.7,0.7,0,0,0-.72.67v3.31a0.7,0.7,0,0,0,.72.67h44.34a0.7,0.7,0,0,0,.73-0.67V85.64a0.7,0.7,0,0,0-.73-0.67" transform="translate(0 0)"/><path class="cls-4" d="M98.26,119.59c3.69-1.43,12.59-6.28,16.37-7.52l0.56-7.17,0,0V91H71.73v15.24a126.37,126.37,0,0,0,20.89,11.56v0.06ZM83.13,99.76H81.61v1.51a1.23,1.23,0,1,1-2.46,0V99.76H77.64a1.23,1.23,0,1,1,0-2.46h1.52V95.78a1.23,1.23,0,0,1,2.46,0V97.3h1.52a1.23,1.23,0,1,1,0,2.46m19.51-2.46h5.49a1.23,1.23,0,1,1,0,2.46h-5.49a1.23,1.23,0,0,1,0-2.46" transform="translate(0 0)"/><path class="cls-7" d="M94.25,117.64a119.23,119.23,0,0,1-23.8-13.09c-0.51.67,1.31,3.42,0.64,4,13,8.61,28.61,14.32,32.57,12.16a73,73,0,0,1-7.08-2.19" transform="translate(0 0)"/><path class="cls-7" d="M116.57,110.56c-0.16-.34-0.36-0.67-0.55-1a109.08,109.08,0,0,1-16.44,8.5l-1.82.69c-1.93.7-3.79,1.27-5.54,1.71,2.6,1.42,15.06-4,24.7-9.27-0.12-.21-0.24-0.42-0.35-0.64" transform="translate(0 0)"/><path class="cls-7" d="M114.56,46.77a20.93,20.93,0,0,0-2.73-1.68c-0.93-.44-1.79-0.08-1.85.78a10.12,10.12,0,0,0,3.28,7.92c0.55-2.18,1.08-4.28,1.58-6.39a0.72,0.72,0,0,0-.29-0.63" transform="translate(0 0)"/><path class="cls-7" d="M127,51.49a15.44,15.44,0,0,0,3.17,0c0.39-.08.64-0.91,1-1.4a3.57,3.57,0,0,0-1.35-.85c-1.25,0-2,.85-2.77,2.24" transform="translate(0 0)"/><path class="cls-7" d="M87.36,175.1a12.82,12.82,0,0,1,6.26,1.63l1.55,1.12a25.63,25.63,0,0,1,5.27,10.81q1.41-.07,2.84-0.19c-1.17-5.54-3.79-10.67-7.44-13.6,0,0-3.73-2.43-6.18-2.54l-2.36-.09a23.66,23.66,0,0,0-5.57,1.21l-2.84,1.74a21.85,21.85,0,0,0-6.8,10.73q1.35,0.33,2.75.64a19.75,19.75,0,0,1,4.79-8.23,13.33,13.33,0,0,1,7.73-3.23" transform="translate(0 0)"/><path class="cls-7" d="M145.81,50.73c-3.49-1.65-7-3.16-10.53-4.77a1.81,1.81,0,0,1-.87-1A2.77,2.77,0,0,0,132.69,43c-2.4-.81-4.78-1.76-7.22-2.35-7.62-1.86-15.18-1-22.69.9-4.56,1.17-15.63,5.94-14.7,6.2a79.39,79.39,0,0,0-14,8.8c-12.68,10-28,28-28.88,57.37,0,5.06,3.2,12.35,8.69,15.93,0.51,0.38,1.05.75,1.61,1.13a60.6,60.6,0,0,0,1.12,9.54l0,0.25c-4.36,7.29-7,16.84-7,27.3a60.6,60.6,0,0,0,.76,9.57c1,0.5,2,1,3.17,1.59a57.3,57.3,0,0,1-1.1-11.17,52.67,52.67,0,0,1,5-22.84c0,0.15.06,0.3,0.09,0.44,0-.26.12-0.52,0.19-0.77a30.17,30.17,0,0,0,5.54,11,47.87,47.87,0,0,1-4.28-13.72c0.11-.17.08-7.23,0.12-9,0-.48,0-0.89,0-1.27a87.28,87.28,0,0,0,19.06,3.15C60.5,130.3,48.36,127.27,48,114,47.33,91.38,58,72.85,75.69,58.92c8.9-7,24.81-14.63,32.74-15.83l0.29,0c7.64-1.27,15.22-1.26,22.61,1.71a1.72,1.72,0,0,1,1.32,1.76,1.1,1.1,0,0,0,.91,1.14c3.87,1.59,7.71,3.24,11.57,4.86,0,0.18,0,.37.07,0.55a20,20,0,0,1-1.84,1.53c-0.94.62-1,.82-0.19,1.68a1.29,1.29,0,0,1,.26,1c-0.38,1.68-1.12,2.49-2.7,2.45a33.52,33.52,0,0,1-4.63-.69,3.35,3.35,0,0,0-.89-0.2,2.09,2.09,0,0,0-.71.47,1.73,1.73,0,0,0,.51.67c1.55,0.38,3.11.69,4.68,1,0.32,0.06.64,0.06,1,.09l0.1,0.39a8.17,8.17,0,0,1-1.91.82,84.45,84.45,0,0,0-25.18,8.09c-1.67,1-3.18,2-4.62,3a5.55,5.55,0,0,1,2.81.26q2.56-1.41,5.2-2.62l0.44,0.78c2.88,5.11,12.61,22.34,13.82,40.82-0.12,2.52-.48,5.4-1.44,6.66-3.84,5-25.2,17.07-35,19.3,4.21,0,9.47-1.1,15.29-3.29,0.33,0.3.65,0.62,1,.94-2.17,11.36-6.66,22.59-11,29.71,5.47-5.44,10.54-15.54,13.57-26.75,5.29,7.06,8.64,17.42,8.64,29a55.36,55.36,0,0,1-2.83,17.63q1.62-.41,3.26-0.89a58.9,58.9,0,0,0,2.39-16.74c0-13.09-4.15-24.77-10.61-32.36l0.07-.29-0.27.06c-0.42-.49-0.32-1.19-0.76-1.64,6.76-2.85,19.62-13,19.63-13,0.1-.26.72-1.8,0.72-1.8,0-.53.82-3.51,0-6.06-1.23-17.95-9.64-35-13.59-42.1a1.19,1.19,0,0,0-.15-0.82,92.72,92.72,0,0,1,18.95-5.74,6.91,6.91,0,0,0,5-3.24c0.37-.6.49-1.37,0.83-2,0.69-1.26,1.45-2.47,2.16-3.71,1.28-2.23.94-3.67-1.27-4.72" transform="translate(0 0)"/></g></svg>